<svg id="visual" viewBox="0 0 960 540" width="960" height="540" xmlns="http://www.w3.org/2000/svg" xmlns:xlink="http://www.w3.org/1999/xlink" version="1.1"><rect x="0" y="0" width="960" height="540" fill="#001220"></rect><defs><linearGradient id="grad1_0" x1="43.8%" y1="0%" x2="100%" y2="100%"><stop offset="14.444444444444446%" stop-color="#001220" stop-opacity="1"></stop><stop offset="85.55555555555554%" stop-color="#001220" stop-opacity="1"></stop></linearGradient></defs><defs><linearGradient id="grad2_0" x1="0%" y1="0%" x2="56.3%" y2="100%"><stop offset="14.444444444444446%" stop-color="#001220" stop-opacity="1"></stop><stop offset="85.55555555555554%" stop-color="#001220" stop-opacity="1"></stop></linearGradient></defs><g transform="translate(960, 0)"><path d="M0 168C-8.1 184 -16.1 200 -28.8 219.1C-41.6 238.3 -59 260.6 -69.6 259.8C-80.3 259.1 -84.1 235.3 -97.2 234.7C-110.3 234.1 -132.5 256.7 -155 268.5C-177.5 280.2 -200.3 281 -197.2 257C-194.2 233.1 -165.2 184.2 -165.5 165.5C-165.7 146.7 -195.1 157.9 -189.6 145.5C-184.1 133.1 -143.6 97 -155.9 90C-168.2 83 -233.3 105.1 -248.5 102.9C-263.7 100.8 -229 74.3 -222.2 59.5C-215.3 44.7 -236.2 41.5 -254.8 33.5C-273.4 25.6 -289.7 12.8 -306 0L0 0Z" fill="red"></path></g><g transform="translate(0, 540)"><path d="M0 -274C8.8 -264.3 17.6 -254.6 36 -273.6C54.4 -292.7 82.4 -340.5 83.9 -313C85.3 -285.4 60.2 -182.5 68.9 -166.3C77.6 -150.1 120.2 -220.8 133 -230.4C145.8 -240 128.8 -188.6 132.1 -172.2C135.4 -155.8 159.2 -174.3 179.6 -179.6C200.1 -184.9 217.3 -176.8 201.5 -154.6C185.8 -132.5 137.1 -96.2 166.3 -96C195.5 -95.8 302.6 -131.7 297.5 -123.2C292.4 -114.8 175.1 -62.1 156.5 -41.9C137.9 -21.8 218 -34.2 247.9 -32.6C277.7 -31.1 257.4 -15.5 237 0L0 0Z" fill="red"></path></g></svg>