<svg id="visual" viewBox="0 0 540 960" width="540" height="960" xmlns="http://www.w3.org/2000/svg" xmlns:xlink="http://www.w3.org/1999/xlink" version="1.1"><rect x="0" y="0" width="540" height="960" fill="#001220"></rect><defs><linearGradient id="grad1_0" x1="0%" y1="0%" x2="100%" y2="100%"><stop offset="30%" stop-color="#001220" stop-opacity="1"></stop><stop offset="70%" stop-color="#001220" stop-opacity="1"></stop></linearGradient></defs><defs><linearGradient id="grad2_0" x1="0%" y1="0%" x2="100%" y2="100%"><stop offset="30%" stop-color="#001220" stop-opacity="1"></stop><stop offset="70%" stop-color="#001220" stop-opacity="1"></stop></linearGradient></defs><g transform="translate(540, 0)"><path d="M0 198C-13.7 225.2 -27.5 252.5 -31.1 236C-34.7 219.5 -28.1 159.2 -46.8 174.8C-65.6 190.4 -109.7 281.9 -117.1 282.7C-124.5 283.5 -95.2 193.7 -98.5 170.6C-101.8 147.5 -137.8 191 -149.1 194.4C-160.5 197.8 -147.3 161.1 -143.5 143.5C-139.8 126 -145.4 127.6 -183.3 140.6C-221.2 153.7 -291.3 178.2 -280.6 162C-269.9 145.8 -178.3 89 -169.1 70C-159.8 51 -232.9 69.9 -256 68.6C-279 67.3 -252 46 -237 31.2C-221.9 16.4 -219 8.2 -216 0L0 0Z" fill="#FBAE3C"></path></g><g transform="translate(0, 960)"><path d="M0 -169C8.7 -193.5 17.3 -217.9 31.1 -236C44.8 -254 63.6 -265.6 63.9 -238.6C64.3 -211.5 46.1 -145.9 65.4 -158C84.8 -170.1 141.6 -260 155 -268.5C168.4 -276.9 138.5 -203.8 133.9 -174.5C129.4 -145.3 150.2 -159.8 161.2 -161.2C172.3 -162.6 173.6 -150.9 199.9 -153.4C226.2 -156 277.4 -172.8 280.6 -162C283.7 -151.2 238.8 -112.6 218 -90.3C197.3 -68 200.6 -61.9 201.9 -54.1C203.2 -46.3 202.4 -36.8 209.2 -27.5C216 -18.2 230.5 -9.1 245 0L0 0Z" fill="#FBAE3C"></path></g></svg>